<?xml version="1.0" encoding="UTF-8"?> <svg width="207px" height="44px" viewBox="0 0 207 44" version="1.1" xmlns="http://www.w3.org/2000/svg" xmlns:xlink="http://www.w3.org/1999/xlink"> <title>headline_01</title> <g id="728x90_ch_vancuver_nxFS2" stroke="none" stroke-width="1" fill="none" fill-rule="evenodd"> <g id="headline_01" fill="#000000"> <path d="M1.752,40.496 C2.136,40.32 2.664,40.232 3.336,40.232 L3.336,40.232 L22.8,40.232 C23.008,40.232 23.112,40.196 23.112,40.124 C23.112,40.052 23.056,39.952 22.944,39.824 L22.944,39.824 L21.168,37.688 L19.56,39.512 L13.2,39.512 L13.2,33.2 L20.184,33.2 C20.376,33.2 20.472,33.164 20.472,33.092 C20.472,33.02 20.424,32.92 20.328,32.792 L20.328,32.792 L18.528,30.608 L16.872,32.504 L13.2,32.504 L13.2,26.744 L21.336,26.744 C21.512,26.744 21.6,26.7 21.6,26.612 C21.6,26.524 21.544,26.416 21.432,26.288 L21.432,26.288 L19.704,24.224 L18.168,26.048 L13.2,26.048 L13.2,21.704 L13.872,21.344 C14.048,21.264 14.136,21.176 14.136,21.08 C14.136,20.984 14.048,20.904 13.872,20.84 L13.872,20.84 L11.328,19.808 C11.408,20.688 11.448,21.968 11.448,23.648 L11.448,23.648 L11.448,26.048 L6.576,26.048 C6.752,25.536 6.912,25.064 7.056,24.632 C7.2,24.2 7.372,23.832 7.572,23.528 C7.772,23.224 7.904,23.064 7.968,23.048 C8.224,23 8.352,22.924 8.352,22.82 C8.352,22.716 8.224,22.6 7.968,22.472 L7.968,22.472 L5.88,21.368 C4.776,26.728 3.248,30.832 1.296,33.68 L1.296,33.68 L1.728,33.92 C3.424,32.08 4.944,29.688 6.288,26.744 L6.288,26.744 L11.448,26.744 L11.448,32.504 L6.12,32.504 C5.432,32.504 4.792,32.456 4.2,32.36 L4.2,32.36 L5.064,33.44 C5.464,33.28 5.992,33.2 6.648,33.2 L6.648,33.2 L11.448,33.2 L11.448,39.512 L2.808,39.512 C2.12,39.512 1.48,39.472 0.888,39.392 L0.888,39.392 L1.752,40.496 Z M31.02,23.96 C31.38,23.96 31.688,23.8 31.944,23.48 C32.2,23.16 32.328,22.776 32.328,22.328 C32.328,21.88 32.08,21.436 31.584,20.996 C31.088,20.556 30.376,20.144 29.448,19.76 L29.448,19.76 L29.232,20.024 C29.568,20.424 29.82,20.816 29.988,21.2 C30.156,21.584 30.288,22.2 30.384,23.048 C30.448,23.656 30.66,23.96 31.02,23.96 Z M34.968,32.312 C37.352,29.576 39.232,26.12 40.608,21.944 C41.216,25.112 42.068,27.456 43.164,28.976 C44.26,30.496 44.968,31.256 45.288,31.256 C45.384,31.256 45.464,31.184 45.528,31.04 C45.624,30.688 45.796,30.436 46.044,30.284 C46.292,30.132 46.672,30.032 47.184,29.984 L47.184,29.984 L47.208,29.624 C45.784,29.08 44.572,28.16 43.572,26.864 C42.572,25.568 41.68,23.752 40.896,21.416 C41.024,21.32 41.188,21.26 41.388,21.236 C41.588,21.212 41.688,21.148 41.688,21.044 C41.688,20.94 41.568,20.84 41.328,20.744 L41.328,20.744 L39.192,19.88 C38.568,24.104 37.032,28.144 34.584,32 L34.584,32 L34.968,32.312 Z M25.032,41.96 C26.904,40.248 28.184,38.5 28.872,36.716 C29.56,34.932 29.992,32.56 30.168,29.6 L30.168,29.6 L32.856,29.6 C32.792,31.936 32.688,33.928 32.544,35.576 C32.4,37.224 32.252,38.176 32.1,38.432 C31.948,38.688 31.628,38.816 31.14,38.816 C30.652,38.816 29.912,38.704 28.92,38.48 L28.92,38.48 L28.824,38.888 C29.512,39.096 30.024,39.356 30.36,39.668 C30.696,39.98 30.88,40.384 30.912,40.88 C30.96,41.232 31.064,41.408 31.224,41.408 C31.384,41.408 31.788,41.156 32.436,40.652 C33.084,40.148 33.496,39.592 33.672,38.984 C33.848,38.376 33.984,37.188 34.08,35.42 C34.176,33.652 34.24,31.816 34.272,29.912 L34.272,29.912 L34.944,29.672 C35.152,29.592 35.256,29.504 35.256,29.408 C35.256,29.312 35.168,29.192 34.992,29.048 L34.992,29.048 L33.6,27.848 L32.784,28.904 L30.216,28.904 C30.28,28.184 30.328,27.04 30.36,25.472 L30.36,25.472 L36.384,25.472 C36.608,25.472 36.72,25.432 36.72,25.352 C36.72,25.272 36.672,25.176 36.576,25.064 L36.576,25.064 L34.896,23.072 L33.432,24.8 L27,24.8 C26.296,24.8 25.648,24.752 25.056,24.656 L25.056,24.656 L25.92,25.712 C26.288,25.552 26.824,25.472 27.528,25.472 L27.528,25.472 L28.728,25.472 C28.76,30.048 28.472,33.512 27.864,35.864 C27.256,38.216 26.232,40.168 24.792,41.72 L24.792,41.72 L25.032,41.96 Z M40.572,34.832 C40.916,34.832 41.22,34.64 41.484,34.256 C41.748,33.872 41.88,33.456 41.88,33.008 C41.88,32.56 41.628,32.072 41.124,31.544 C40.62,31.016 39.936,30.432 39.072,29.792 L39.072,29.792 L38.856,30.08 C39.576,31.2 39.952,32.384 39.984,33.632 C40.032,34.432 40.228,34.832 40.572,34.832 Z M43.512,41.792 C43.752,41.792 43.96,41.688 44.136,41.48 C44.312,41.272 44.4,40.984 44.4,40.616 C44.4,40.248 44.304,39.856 44.112,39.44 C43.92,39.024 43.244,38.552 42.084,38.024 C40.924,37.496 39.184,36.936 36.864,36.344 L36.864,36.344 L36.672,36.752 C38.016,37.312 39.164,37.932 40.116,38.612 C41.068,39.292 41.92,40.128 42.672,41.12 C42.992,41.568 43.272,41.792 43.512,41.792 Z M60.396,21.848 C60.692,21.848 60.916,21.74 61.068,21.524 C61.22,21.308 61.296,21.02 61.296,20.66 C61.296,20.3 61.036,20.024 60.516,19.832 C59.996,19.64 59.256,19.496 58.296,19.4 L58.296,19.4 L58.128,19.76 C58.832,20.112 59.352,20.64 59.688,21.344 C59.864,21.68 60.1,21.848 60.396,21.848 Z M50.472,25.136 C50.968,25.136 51.392,24.932 51.744,24.524 C52.096,24.116 52.312,23.488 52.392,22.64 L52.392,22.64 L68.232,22.64 L67.464,24.152 L67.728,24.272 C68.32,23.776 68.792,23.432 69.144,23.24 C69.496,23.048 69.856,22.944 70.224,22.928 C70.592,22.912 70.776,22.816 70.776,22.64 C70.776,22.464 70.672,22.312 70.464,22.184 L70.464,22.184 L68.856,21.128 L68.28,22.04 L52.392,22.04 C52.376,21.848 52.336,21.528 52.272,21.08 L52.272,21.08 L51.96,21.08 C51.896,21.64 51.732,22.128 51.468,22.544 C51.204,22.96 50.76,23.392 50.136,23.84 C49.88,24.016 49.752,24.22 49.752,24.452 C49.752,24.684 49.816,24.856 49.944,24.968 C50.072,25.08 50.248,25.136 50.472,25.136 Z M54.048,38.816 C54.176,38.816 54.456,38.712 54.888,38.504 C55.32,38.296 55.528,38.064 55.512,37.808 L55.512,37.808 L64.032,37.808 L64.032,38.216 C64.032,38.408 64.088,38.504 64.2,38.504 C64.312,38.504 64.604,38.4 65.076,38.192 C65.548,37.984 65.784,37.776 65.784,37.568 L65.784,37.568 L65.664,36.608 C65.632,36.208 65.616,35.816 65.616,35.432 L65.616,35.432 L65.616,32.192 C66.192,32.544 66.884,32.904 67.692,33.272 C68.5,33.64 68.984,33.824 69.144,33.824 C69.304,33.824 69.408,33.728 69.456,33.536 C69.504,33.328 69.676,33.12 69.972,32.912 C70.268,32.704 70.616,32.584 71.016,32.552 L71.016,32.552 L71.016,32.264 C67.816,32.104 65.256,31.16 63.336,29.432 L63.336,29.432 L70.536,29.432 C70.712,29.432 70.8,29.408 70.8,29.36 C70.8,29.312 70.768,29.24 70.704,29.144 L70.704,29.144 L69.384,27.584 L68.28,28.856 L63.432,28.856 L63.432,27.392 L67.368,27.392 C67.576,27.392 67.68,27.36 67.68,27.296 C67.68,27.232 67.624,27.152 67.512,27.056 L67.512,27.056 L66.528,25.904 L65.736,26.84 L63.432,26.84 L63.432,25.472 L67.488,25.472 C67.696,25.472 67.8,25.44 67.8,25.376 C67.8,25.312 67.744,25.224 67.632,25.112 L67.632,25.112 L66.528,23.792 L65.592,24.848 L63.432,24.848 L63.432,23.936 L63.816,23.696 C63.928,23.632 63.984,23.556 63.984,23.468 C63.984,23.38 63.896,23.312 63.72,23.264 L63.72,23.264 L61.896,22.784 C61.944,23.552 61.968,24.24 61.968,24.848 L61.968,24.848 L57.744,24.848 L57.744,24.032 L58.056,23.84 C58.152,23.76 58.2,23.68 58.2,23.6 C58.2,23.52 58.128,23.448 57.984,23.384 L57.984,23.384 L56.112,22.736 C56.16,23.472 56.184,24.176 56.184,24.848 L56.184,24.848 L53.904,24.848 C53.216,24.848 52.584,24.808 52.008,24.728 L52.008,24.728 L52.824,25.712 C53.24,25.552 53.776,25.472 54.432,25.472 L54.432,25.472 L56.184,25.472 L56.184,26.84 L53.856,26.84 C53.168,26.84 52.536,26.8 51.96,26.72 L51.96,26.72 L52.776,27.656 C53.16,27.48 53.688,27.392 54.36,27.392 L54.36,27.392 L56.184,27.392 L56.184,28.856 L50.928,28.856 C50.256,28.856 49.624,28.816 49.032,28.736 L49.032,28.736 L49.872,29.696 C50.24,29.52 50.76,29.432 51.432,29.432 L51.432,29.432 L55.776,29.432 C54.288,31.208 52.024,32.864 48.984,34.4 L48.984,34.4 L49.104,34.736 C50.944,34.048 52.552,33.272 53.928,32.408 L53.928,32.408 L53.928,36.008 C53.928,36.456 53.92,36.896 53.904,37.328 L53.904,37.328 L53.856,38.432 C53.856,38.688 53.92,38.816 54.048,38.816 Z M61.968,26.84 L57.744,26.84 L57.744,25.472 L61.968,25.472 L61.968,26.84 Z M61.968,28.856 L57.744,28.856 L57.744,27.392 L61.968,27.392 L61.968,28.856 Z M64.32,31.256 L55.656,31.256 C56.424,30.68 57.104,30.072 57.696,29.432 L57.696,29.432 L62.568,29.432 C63.016,30.04 63.6,30.648 64.32,31.256 L64.32,31.256 Z M64.032,33.224 L55.512,33.224 L55.512,31.808 L64.032,31.808 L64.032,33.224 Z M64.032,35.144 L55.512,35.144 L55.512,33.8 L64.032,33.8 L64.032,35.144 Z M64.032,37.208 L55.512,37.208 L55.512,35.696 L64.032,35.696 L64.032,37.208 Z M49.344,42.032 C52.496,41.488 55.024,40.768 56.928,39.872 C57.408,39.664 57.824,39.56 58.176,39.56 L58.176,39.56 L58.752,39.632 C58.912,39.632 58.992,39.588 58.992,39.5 C58.992,39.412 58.888,39.28 58.68,39.104 L58.68,39.104 L57.36,38.048 C56.64,38.576 55.456,39.212 53.808,39.956 C52.16,40.7 50.64,41.288 49.248,41.72 L49.248,41.72 L49.344,42.032 Z M68.436,41.864 C68.604,41.864 68.744,41.804 68.856,41.684 C68.968,41.564 69.024,41.376 69.024,41.12 C69.024,40.864 68.828,40.516 68.436,40.076 C68.044,39.636 67.292,39.312 66.18,39.104 C65.068,38.896 63.352,38.752 61.032,38.672 L61.032,38.672 L61.032,38.912 C62.104,39.136 63.124,39.428 64.092,39.788 C65.06,40.148 66.264,40.744 67.704,41.576 C68.024,41.768 68.268,41.864 68.436,41.864 Z M81.756,38.696 C81.892,38.696 82.18,38.6 82.62,38.408 C83.06,38.216 83.28,37.92 83.28,37.52 L83.28,37.52 L83.28,36.608 L89.976,36.608 L89.976,38.024 C89.976,38.216 90.068,38.312 90.252,38.312 C90.436,38.312 90.74,38.192 91.164,37.952 C91.588,37.712 91.8,37.472 91.8,37.232 L91.8,37.232 L91.704,35.312 C91.656,34.464 91.632,33.72 91.632,33.08 L91.632,33.08 L91.632,27.896 L92.256,27.44 C92.368,27.344 92.424,27.268 92.424,27.212 C92.424,27.156 92.368,27.072 92.256,26.96 L92.256,26.96 L90.504,25.736 L89.64,26.864 L85.8,26.864 C86.504,25.744 87,25.016 87.288,24.68 L87.288,24.68 L95.04,24.68 C95.232,24.68 95.328,24.644 95.328,24.572 C95.328,24.5 95.272,24.4 95.16,24.272 L95.16,24.272 L93.432,22.184 L91.944,24.056 L87.96,24.056 C88.84,23.096 89.516,22.436 89.988,22.076 C90.46,21.716 90.852,21.5 91.164,21.428 C91.476,21.356 91.632,21.28 91.632,21.2 C91.632,21.12 91.536,21.008 91.344,20.864 L91.344,20.864 L89.472,19.664 C89.008,21.024 88.256,22.488 87.216,24.056 L87.216,24.056 L81.24,24.056 C80.504,24.056 79.832,24.016 79.224,23.936 L79.224,23.936 L80.136,24.944 C80.584,24.768 81.128,24.68 81.768,24.68 L81.768,24.68 L85.488,24.68 C85.296,25.608 85.128,26.336 84.984,26.864 L84.984,26.864 L83.256,26.864 L81.648,26 C81.696,26.896 81.72,27.872 81.72,28.928 L81.72,28.928 L81.72,34.112 C81.72,35.632 81.672,36.888 81.576,37.88 C81.56,38.072 81.552,38.256 81.552,38.432 C81.552,38.608 81.62,38.696 81.756,38.696 Z M84.54,23.672 C84.788,23.672 85.008,23.532 85.2,23.252 C85.392,22.972 85.488,22.648 85.488,22.28 C85.488,21.272 84.4,20.52 82.224,20.024 L82.224,20.024 L82.056,20.312 C83.048,21.16 83.68,22.056 83.952,23 C84.096,23.448 84.292,23.672 84.54,23.672 Z M77.352,25.472 C77.672,25.472 77.94,25.304 78.156,24.968 C78.372,24.632 78.48,24.248 78.48,23.816 C78.48,23.112 78.212,22.596 77.676,22.268 C77.14,21.94 76.272,21.576 75.072,21.176 L75.072,21.176 L74.856,21.44 C75.32,21.856 75.688,22.264 75.96,22.664 C76.232,23.064 76.512,23.72 76.8,24.632 C76.976,25.192 77.16,25.472 77.352,25.472 Z M89.976,29.888 L83.28,29.888 L83.28,27.512 L89.976,27.512 L89.976,29.888 Z M74.736,41.264 C74.816,41.264 74.904,41.168 75,40.976 C75.336,40.384 75.7,39.836 76.092,39.332 C76.484,38.828 76.748,38.536 76.884,38.456 C77.02,38.376 77.184,38.336 77.376,38.336 C77.776,38.336 78.136,38.496 78.456,38.816 C79.144,39.488 80.032,40.028 81.12,40.436 C82.208,40.844 83.644,41.072 85.428,41.12 C87.212,41.168 88.976,41.192 90.72,41.192 L90.72,41.192 L91.5286667,41.191 C92.7708889,41.1876667 93.4853333,41.176 93.672,41.156 C93.896,41.132 94.016,41.04 94.032,40.88 C94.112,40.352 94.272,39.96 94.512,39.704 C94.752,39.448 95.12,39.264 95.616,39.152 L95.616,39.152 L95.592,38.888 C92.568,39.368 89.568,39.608 86.592,39.608 C85.28,39.608 84.228,39.58 83.436,39.524 C82.644,39.468 81.94,39.38 81.324,39.26 C80.708,39.14 80.216,38.992 79.848,38.816 C79.48,38.64 78.928,38.312 78.192,37.832 L78.192,37.832 L78.192,30.56 L78.864,30.2 C79.04,30.104 79.128,30.02 79.128,29.948 C79.128,29.876 79.032,29.752 78.84,29.576 L78.84,29.576 L77.352,28.328 L76.512,29.384 L75.12,29.384 C74.384,29.384 73.72,29.336 73.128,29.24 L73.128,29.24 L73.968,30.296 C74.208,30.136 74.752,30.056 75.6,30.056 L75.6,30.056 L76.536,30.056 L76.536,37.64 C76.056,37.832 74.976,38.4 73.296,39.344 L73.296,39.344 L74.496,41.096 C74.576,41.208 74.656,41.264 74.736,41.264 Z M89.976,32.864 L83.28,32.864 L83.28,30.56 L89.976,30.56 L89.976,32.864 Z M89.976,35.936 L83.28,35.936 L83.28,33.536 L89.976,33.536 L89.976,35.936 Z M113.952,25.112 C114.704,25.112 115.12,24.816 115.2,24.224 C116.72,23.552 118.092,23.024 119.316,22.64 C120.54,22.256 121.38,22.064 121.836,22.064 C122.292,22.064 122.52,22 122.52,21.872 C122.52,21.744 122.456,21.616 122.328,21.488 L122.328,21.488 L120.48,19.976 L119.424,21.056 L106.992,21.056 C106.272,21.056 105.608,21.016 105,20.936 L105,20.936 L105.888,22.04 C106.304,21.864 106.848,21.776 107.52,21.776 L107.52,21.776 L118.992,21.776 L115.032,23.72 C114.568,23.048 113.248,22.656 111.072,22.544 L111.072,22.544 L110.952,22.856 C111.624,23.112 112.096,23.364 112.368,23.612 C112.64,23.86 112.896,24.208 113.136,24.656 C113.296,24.96 113.568,25.112 113.952,25.112 Z M106.068,33.344 C106.22,33.344 106.504,33.256 106.92,33.08 C107.336,32.904 107.584,32.752 107.664,32.624 C107.744,32.496 107.784,32.312 107.784,32.072 L107.784,32.072 L107.784,30.92 L112.992,30.92 L112.896,32.048 C112.896,32.32 112.964,32.456 113.1,32.456 C113.236,32.456 113.548,32.356 114.036,32.156 C114.524,31.956 114.768,31.68 114.768,31.328 C114.768,31.216 114.76,31.08 114.744,30.92 L114.744,30.92 L120.072,30.92 L120.072,31.808 C120.072,32.24 120.104,32.544 120.168,32.72 C120.232,32.896 120.348,32.984 120.516,32.984 C120.684,32.984 120.96,32.904 121.344,32.744 C121.728,32.584 121.92,32.344 121.92,32.024 C121.92,31.896 121.892,31.652 121.836,31.292 C121.78,30.932 121.752,30.432 121.752,29.792 L121.752,29.792 L121.752,26.456 L122.376,26.024 C122.52,25.928 122.592,25.832 122.592,25.736 C122.592,25.64 122.52,25.544 122.376,25.448 L122.376,25.448 L120.648,24.2 L119.88,25.256 L107.928,25.256 L105.96,24.224 C106.024,25.568 106.056,26.696 106.056,27.608 L106.056,27.608 L106.056,30.176 C106.056,30.72 106.02,31.292 105.948,31.892 C105.876,32.492 105.84,32.884 105.84,33.068 C105.84,33.252 105.916,33.344 106.068,33.344 Z M120.072,27.704 L114.72,27.704 L114.72,25.928 L120.072,25.928 L120.072,27.704 Z M113.04,27.704 L107.784,27.704 L107.784,25.928 L113.04,25.928 L113.04,27.704 Z M120.072,30.272 L114.744,30.272 C114.7312,29.9776 114.72352,29.51424 114.72096,28.88192 L114.72,28.376 L120.072,28.376 L120.072,30.272 Z M113.016,30.272 L107.784,30.272 L107.784,28.376 L113.04,28.376 C113.04,29.272 113.032,29.904 113.016,30.272 L113.016,30.272 Z M117.96,41.744 C118.184,41.744 118.572,41.632 119.124,41.408 C119.676,41.184 120.136,40.908 120.504,40.58 C120.872,40.252 121.188,39.516 121.452,38.372 C121.716,37.228 121.912,36.328 122.04,35.672 L122.04,35.672 L122.784,35.48 C123.008,35.4 123.12,35.308 123.12,35.204 C123.12,35.1 123.048,34.992 122.904,34.88 L122.904,34.88 L121.32,33.416 L120.528,34.496 L113.712,34.496 C113.92,33.968 114.112,33.66 114.288,33.572 C114.464,33.484 114.552,33.392 114.552,33.296 C114.552,33.2 114.448,33.112 114.24,33.032 L114.24,33.032 L112.344,32.264 C112.184,33.192 112.016,33.936 111.84,34.496 L111.84,34.496 L104.976,34.496 C104.256,34.496 103.592,34.448 102.984,34.352 L102.984,34.352 L103.824,35.408 C104.4,35.248 104.952,35.168 105.48,35.168 L105.48,35.168 L111.648,35.168 C111.104,36.72 110.164,37.948 108.828,38.852 C107.492,39.756 105.424,40.592 102.624,41.36 L102.624,41.36 L102.72,41.696 C106.048,41.184 108.492,40.48 110.052,39.584 C111.612,38.688 112.752,37.216 113.472,35.168 L113.472,35.168 L120.456,35.168 C120.28,36.064 120.076,36.892 119.844,37.652 C119.612,38.412 119.4,38.9 119.208,39.116 C119.016,39.332 118.66,39.44 118.14,39.44 C117.62,39.44 116.48,39.272 114.72,38.936 L114.72,38.936 L114.6,39.392 C115.48,39.664 116.184,39.984 116.712,40.352 C117.24,40.72 117.532,41.044 117.588,41.324 C117.644,41.604 117.768,41.744 117.96,41.744 Z M128.796,41.96 C128.948,41.96 129.24,41.84 129.672,41.6 C130.104,41.36 130.32,41.088 130.32,40.784 C130.32,40.736 130.308,40.324 130.284,39.548 C130.26,38.772 130.248,37.664 130.248,36.224 L130.248,36.224 L130.248,26.336 L135.12,26.336 C135.12,26.752 135.18,26.96 135.3,26.96 C135.42,26.96 135.668,26.876 136.044,26.708 C136.42,26.54 136.608,26.344 136.608,26.12 L136.608,26.12 L136.56,24.416 L136.56,22.088 L136.944,21.848 C137.088,21.752 137.16,21.668 137.16,21.596 C137.16,21.524 137.096,21.44 136.968,21.344 L136.968,21.344 L135.6,20.456 L134.928,21.296 L130.368,21.296 L128.664,20.12 C128.744,21.496 128.784,22.792 128.784,24.008 L128.784,24.008 L128.784,35.696 C128.784,36.704 128.752,37.776 128.688,38.912 L128.688,38.912 L128.568,41.432 C128.568,41.784 128.644,41.96 128.796,41.96 Z M145.296,41.888 C145.392,41.888 145.668,41.72 146.124,41.384 C146.58,41.048 146.876,40.748 147.012,40.484 C147.148,40.22 147.216,39.832 147.216,39.32 L147.216,39.32 L147.216,22.256 L147.72,22.016 C147.88,21.952 147.96,21.868 147.96,21.764 C147.96,21.66 147.88,21.56 147.72,21.464 L147.72,21.464 L146.232,20.36 L145.44,21.296 L140.64,21.296 L139.152,20.264 C139.2,21.096 139.224,21.824 139.224,22.448 L139.224,22.448 L139.224,24.392 C139.224,25.176 139.212,25.76 139.188,26.144 C139.164,26.528 139.152,26.8 139.152,26.96 C139.152,27.12 139.216,27.2 139.344,27.2 C139.472,27.2 139.712,27.12 140.064,26.96 C140.416,26.8 140.592,26.6 140.592,26.36 L140.592,26.36 L145.704,26.36 L145.704,38.816 C145.704,39.184 145.616,39.416 145.44,39.512 C145.264,39.608 144.996,39.656 144.636,39.656 C144.276,39.656 143.696,39.584 142.896,39.44 L142.896,39.44 L142.872,39.752 C143.736,40.024 144.3,40.28 144.564,40.52 C144.828,40.76 144.988,41.048 145.044,41.384 C145.1,41.72 145.184,41.888 145.296,41.888 Z M145.704,23.504 L140.592,23.504 L140.592,21.872 L145.704,21.872 L145.704,23.504 Z M135.12,23.528 L130.248,23.528 L130.248,21.92 L135.12,21.92 L135.12,23.528 Z M145.704,25.76 L140.592,25.76 L140.592,24.08 L145.704,24.08 L145.704,25.76 Z M135.12,25.736 L130.248,25.736 L130.248,24.104 L135.12,24.104 L135.12,25.736 Z M140.76,40.592 C140.872,40.592 141.18,40.448 141.684,40.16 C142.188,39.872 142.516,39.612 142.668,39.38 C142.82,39.148 142.996,38.592 143.196,37.712 C143.396,36.832 143.52,35.936 143.568,35.024 L143.568,35.024 L144.024,34.736 C144.216,34.608 144.312,34.508 144.312,34.436 C144.312,34.364 144.232,34.272 144.072,34.16 L144.072,34.16 L142.752,33.128 L142.128,33.944 L138.48,33.944 L138.48,32.48 L142.152,32.48 C142.36,32.48 142.464,32.444 142.464,32.372 C142.464,32.3 142.408,32.216 142.296,32.12 L142.296,32.12 L141.24,30.848 L140.352,31.904 L138.48,31.904 L138.48,30.44 L142.056,30.44 C142.264,30.44 142.368,30.404 142.368,30.332 C142.368,30.26 142.312,30.16 142.2,30.032 L142.2,30.032 L141.312,28.928 L140.328,29.912 L138.48,29.912 L138.48,28.448 L143.328,28.448 C143.552,28.448 143.664,28.412 143.664,28.34 C143.664,28.268 143.6,28.168 143.472,28.04 L143.472,28.04 L142.488,26.864 L141.408,27.92 L134.136,27.92 L132.816,26.984 C132.848,27.496 132.864,28.192 132.864,29.072 L132.864,29.072 L132.864,31.424 C132.864,32.464 132.856,33.232 132.84,33.728 L132.84,33.728 L132.792,34.88 C132.792,35.152 132.848,35.288 132.96,35.288 C133.072,35.288 133.304,35.216 133.656,35.072 C134.008,34.928 134.176,34.728 134.16,34.472 L134.16,34.472 L142.248,34.472 C142.216,35.288 142.128,36.104 141.984,36.92 C141.84,37.736 141.696,38.236 141.552,38.42 C141.408,38.604 141.16,38.696 140.808,38.696 C140.456,38.696 139.824,38.592 138.912,38.384 L138.912,38.384 L138.816,38.672 C139.504,38.928 139.96,39.172 140.184,39.404 C140.408,39.636 140.536,39.936 140.568,40.304 C140.584,40.496 140.648,40.592 140.76,40.592 Z M137.184,29.912 L134.16,29.912 L134.16,28.448 L137.184,28.448 L137.184,29.912 Z M137.184,31.904 L134.16,31.904 L134.16,30.44 L137.184,30.44 L137.184,31.904 Z M137.184,33.944 L134.16,33.944 L134.16,32.48 L137.184,32.48 L137.184,33.944 Z M140.232,37.712 C140.408,37.712 140.56,37.62 140.688,37.436 C140.816,37.252 140.88,37.008 140.88,36.704 C140.88,36.4 140.752,36.108 140.496,35.828 C140.24,35.548 139.8,35.224 139.176,34.856 L139.176,34.856 L139.008,35.024 C139.44,35.728 139.684,36.352 139.74,36.896 C139.796,37.44 139.96,37.712 140.232,37.712 Z M137.532,38.12 C137.684,38.12 137.852,38.024 138.036,37.832 C138.22,37.64 138.312,37.368 138.312,37.016 C138.312,36.664 138.176,36.336 137.904,36.032 C137.632,35.728 137.232,35.392 136.704,35.024 L136.704,35.024 L136.512,35.144 C136.896,35.8 137.12,36.584 137.184,37.496 C137.2,37.736 137.224,37.9 137.256,37.988 C137.288,38.076 137.38,38.12 137.532,38.12 Z M134.952,38.504 C135.128,38.504 135.304,38.412 135.48,38.228 C135.656,38.044 135.744,37.8 135.744,37.496 C135.744,37.192 135.672,36.892 135.528,36.596 C135.384,36.3 135.04,35.84 134.496,35.216 L134.496,35.216 L134.28,35.384 C134.488,35.832 134.592,36.276 134.592,36.716 C134.592,37.156 134.568,37.5 134.52,37.748 C134.472,37.996 134.488,38.184 134.568,38.312 C134.648,38.44 134.776,38.504 134.952,38.504 Z M131.556,38.84 C131.804,38.84 132.072,38.656 132.36,38.288 C132.648,37.92 132.792,37.336 132.792,36.536 C132.792,36.248 132.776,35.912 132.744,35.528 L132.744,35.528 L132.456,35.504 C132.408,36 132.288,36.412 132.096,36.74 C131.904,37.068 131.52,37.432 130.944,37.832 C130.8,37.944 130.728,38.072 130.728,38.216 C130.728,38.36 130.804,38.5 130.956,38.636 C131.108,38.772 131.308,38.84 131.556,38.84 Z M151.752,25.136 C152.12,24.976 152.656,24.896 153.36,24.896 L153.36,24.896 L172.752,24.896 C172.96,24.896 173.064,24.844 173.064,24.74 C173.064,24.636 173.016,24.528 172.92,24.416 L172.92,24.416 L171.192,22.352 L169.608,24.248 L163.896,24.248 C165.16,23.064 166.012,22.284 166.452,21.908 C166.892,21.532 167.24,21.284 167.496,21.164 C167.752,21.044 167.88,20.936 167.88,20.84 C167.88,20.744 167.768,20.64 167.544,20.528 L167.544,20.528 L165.528,19.448 C165.112,20.776 164.304,22.376 163.104,24.248 L163.104,24.248 L152.88,24.248 C152.16,24.248 151.512,24.208 150.936,24.128 L150.936,24.128 L151.752,25.136 Z M159.48,23.888 C159.736,23.888 159.988,23.736 160.236,23.432 C160.484,23.128 160.608,22.768 160.608,22.352 C160.608,21.504 159.336,20.68 156.792,19.88 L156.792,19.88 L156.576,20.12 C157.168,20.696 157.592,21.176 157.848,21.56 C158.104,21.944 158.316,22.36 158.484,22.808 C158.652,23.256 158.796,23.548 158.916,23.684 C159.036,23.82 159.224,23.888 159.48,23.888 Z M167.664,42.248 C167.808,42.248 168.192,42.044 168.816,41.636 C169.44,41.228 169.824,40.888 169.968,40.616 C170.112,40.344 170.184,39.928 170.184,39.368 L170.184,39.368 L170.184,27.824 L170.712,27.464 C170.904,27.32 171,27.196 171,27.092 C171,26.988 170.904,26.896 170.712,26.816 L170.712,26.816 L168.408,25.832 C168.472,26.68 168.504,27.968 168.504,29.696 L168.504,29.696 L168.504,39.128 C168.504,39.368 168.452,39.528 168.348,39.608 C168.244,39.688 167.964,39.728 167.508,39.728 C167.052,39.728 166.048,39.648 164.496,39.488 L164.496,39.488 L164.424,39.968 C165.672,40.272 166.476,40.544 166.836,40.784 C167.196,41.024 167.392,41.36 167.424,41.792 C167.44,42.096 167.52,42.248 167.664,42.248 Z M154.116,41.768 C154.236,41.768 154.524,41.692 154.98,41.54 C155.436,41.388 155.664,41.152 155.664,40.832 L155.664,40.832 L155.664,34.832 L159.912,34.832 L159.912,38.72 C159.912,38.96 159.86,39.128 159.756,39.224 C159.652,39.32 159.412,39.368 159.036,39.368 C158.66,39.368 157.984,39.312 157.008,39.2 L157.008,39.2 L156.936,39.56 C157.912,39.848 158.56,40.104 158.88,40.328 C159.2,40.552 159.36,40.824 159.36,41.144 C159.36,41.464 159.448,41.624 159.624,41.624 C159.8,41.624 160.092,41.476 160.5,41.18 C160.908,40.884 161.184,40.584 161.328,40.28 C161.472,39.976 161.544,39.504 161.544,38.864 L161.544,38.864 L161.544,28.544 L162.168,28.112 C162.36,27.968 162.456,27.848 162.456,27.752 C162.456,27.656 162.392,27.56 162.264,27.464 L162.264,27.464 L160.608,26.24 L159.84,27.2 L155.64,27.2 L153.96,26.192 C154.008,27.056 154.032,27.896 154.032,28.712 L154.032,28.712 L154.032,37.496 C154.032,38.552 154.016,39.384 153.984,39.992 L153.984,39.992 L153.936,41.384 C153.936,41.64 153.996,41.768 154.116,41.768 Z M164.304,37.976 C164.448,37.976 164.744,37.868 165.192,37.652 C165.64,37.436 165.864,37.248 165.864,37.088 L165.864,37.088 L165.816,36.248 C165.802667,35.968 165.794889,35.4324444 165.792667,34.6413333 L165.792,28.784 L166.272,28.448 C166.416,28.352 166.488,28.256 166.488,28.16 C166.488,28.064 166.4,27.976 166.224,27.896 L166.224,27.896 L164.088,27.08 C164.152,27.912 164.184,28.64 164.184,29.264 L164.184,29.264 L164.184,34.064 C164.184,35.2 164.168,36.04 164.136,36.584 C164.104,37.128 164.088,37.432 164.088,37.496 C164.088,37.816 164.16,37.976 164.304,37.976 Z M159.912,30.656 L155.664,30.656 L155.664,27.848 L159.912,27.848 L159.912,30.656 Z M159.912,34.16 L155.664,34.16 L155.664,31.304 L159.912,31.304 L159.912,34.16 Z M186.228,41.888 C186.364,41.888 186.588,41.816 186.9,41.672 C187.212,41.528 187.424,41.388 187.536,41.252 C187.648,41.116 187.704,40.88 187.704,40.544 L187.704,40.544 L187.704,39.272 L192.432,39.272 L192.432,41.192 C192.432,41.416 192.504,41.528 192.648,41.528 C192.792,41.528 193.064,41.412 193.464,41.18 C193.864,40.948 194.064,40.664 194.064,40.328 L194.064,40.328 L193.968,39.152 C193.936,38.688 193.92,38.2 193.92,37.688 L193.92,37.688 L193.92,33.944 L194.52,33.488 C194.648,33.408 194.712,33.336 194.712,33.272 C194.712,33.208 194.648,33.128 194.52,33.032 L194.52,33.032 L192.96,31.784 L192.216,32.912 L187.8,32.912 L186.96,32.504 C188.208,31.672 189.328,30.752 190.32,29.744 C191.12,30.48 192.136,31.176 193.368,31.832 C194.6,32.488 195.304,32.816 195.48,32.816 C195.656,32.816 195.768,32.72 195.816,32.528 C196.024,31.888 196.536,31.48 197.352,31.304 L197.352,31.304 L197.352,30.992 C194.76,30.64 192.712,29.904 191.208,28.784 C192.168,27.664 193.08,26.272 193.944,24.608 C194.136,24.272 194.292,24.044 194.412,23.924 C194.532,23.804 194.704,23.72 194.928,23.672 C195.152,23.624 195.264,23.544 195.264,23.432 C195.264,23.32 195.192,23.2 195.048,23.072 L195.048,23.072 L193.416,21.752 L192.48,23.024 L188.4,23.024 C188.496,22.864 188.664,22.52 188.904,21.992 C189.144,21.464 189.384,21.144 189.624,21.032 C189.864,20.92 189.984,20.812 189.984,20.708 C189.984,20.604 189.88,20.504 189.672,20.408 L189.672,20.408 L187.872,19.448 C186.944,23.272 185.6,26.488 183.84,29.096 L183.84,29.096 L184.152,29.408 C185.416,28.112 186.52,26.584 187.464,24.824 C188.008,26.552 188.688,27.896 189.504,28.856 C187.648,30.888 185.312,32.736 182.496,34.4 L182.496,34.4 L182.688,34.784 C184.016,34.208 185.16,33.624 186.12,33.032 L186.12,33.032 L186.12,38.456 C186.12,39.144 186.112,39.736 186.096,40.232 L186.096,40.232 L186.024,41.456 C186.024,41.744 186.092,41.888 186.228,41.888 Z M175.752,40.856 C175.864,40.856 176.016,40.808 176.208,40.712 C176.752,40.376 177.656,39.944 178.92,39.416 L178.92,39.416 L185.184,36.68 L185.088,36.368 L181.08,37.352 L181.08,32.792 L184.2,32.792 C184.424,32.792 184.536,32.76 184.536,32.696 C184.536,32.632 184.488,32.528 184.392,32.384 L184.392,32.384 L183.144,30.872 L182.112,32.144 L181.08,32.144 L181.08,28.208 L181.92,28.208 L181.92,28.88 C181.92,29.104 181.976,29.216 182.088,29.216 C182.2,29.216 182.464,29.112 182.88,28.904 C183.296,28.696 183.504,28.432 183.504,28.112 L183.504,28.112 L183.432,27.032 C183.4,26.552 183.384,26 183.384,25.376 L183.384,25.376 L183.384,22.952 L184.08,22.496 C184.192,22.432 184.248,22.364 184.248,22.292 C184.248,22.22 184.192,22.136 184.08,22.04 L184.08,22.04 L182.592,20.792 L181.848,21.92 L178.152,21.92 L176.688,20.84 C176.736,21.72 176.76,22.472 176.76,23.096 L176.76,23.096 L176.76,26.072 C176.76,26.744 176.752,27.32 176.736,27.8 L176.736,27.8 L176.688,29.072 C176.688,29.36 176.752,29.504 176.88,29.504 C177.008,29.504 177.232,29.428 177.552,29.276 C177.872,29.124 178.072,28.98 178.152,28.844 C178.232,28.708 178.272,28.496 178.272,28.208 L178.272,28.208 L179.64,28.208 L179.64,37.688 L177.864,38.144 L177.864,31.76 L178.296,31.448 C178.44,31.368 178.512,31.288 178.512,31.208 C178.512,31.128 178.432,31.056 178.272,30.992 L178.272,30.992 L176.304,29.96 C176.352,30.808 176.376,31.56 176.376,32.216 L176.376,32.216 L176.376,38.504 L174.624,38.936 L175.44,40.592 C175.536,40.768 175.64,40.856 175.752,40.856 Z M181.92,27.56 L178.272,27.56 L178.272,22.592 L181.92,22.592 L181.92,27.56 Z M190.248,27.944 C189.304,27.048 188.488,25.8 187.8,24.2 C187.928,23.992 188.016,23.824 188.064,23.696 L188.064,23.696 L192.48,23.696 C191.92,25.328 191.176,26.744 190.248,27.944 Z M192.432,38.624 L187.704,38.624 L187.704,33.584 L192.432,33.584 L192.432,38.624 Z" id="Shape"></path> <path d="M58.876,14.98 C59.012,14.98 59.244,14.902 59.572,14.746 C59.9,14.59 60.144,14.4 60.304,14.176 C60.464,13.952 60.57,13.698 60.622,13.414 C60.674,13.13 60.716,12.596 60.748,11.812 C60.78,11.028 60.824,9.384 60.88,6.88 C61.216,6.736 61.384,6.612 61.384,6.508 C61.384,6.404 61.206,6.226 60.85,5.974 C60.494,5.722 60.278,5.596 60.202,5.596 C60.126,5.596 60.052,5.648 59.98,5.752 L59.98,5.752 L59.656,6.244 L58.024,6.244 C58.168,5.94 58.312,5.614 58.456,5.266 C58.6,4.918 58.694,4.712 58.738,4.648 C58.782,4.584 58.87,4.536 59.002,4.504 C59.134,4.472 59.2,4.428 59.2,4.372 C59.2,4.316 59.17,4.266 59.11,4.222 C59.05,4.178 58.88,4.096 58.6,3.976 C58.32,3.856 57.996,3.732 57.628,3.604 C57.396,4.804 57.158,5.782 56.914,6.538 C56.67,7.294 56.3,8.212 55.804,9.292 L55.804,9.292 L56.008,9.424 C56.88,8.272 57.488,7.348 57.832,6.652 L57.832,6.652 L59.752,6.652 C59.744,8.044 59.724,9.23 59.692,10.21 C59.66,11.19 59.628,11.898 59.596,12.334 C59.564,12.77 59.532,13.048 59.5,13.168 C59.468,13.288 59.406,13.374 59.314,13.426 C59.222,13.478 59.052,13.504 58.804,13.504 C58.556,13.504 57.956,13.436 57.004,13.3 L57.004,13.3 L56.944,13.552 C57.416,13.68 57.768,13.8 58,13.912 C58.232,14.024 58.396,14.144 58.492,14.272 C58.588,14.4 58.668,14.576 58.732,14.8 C58.764,14.92 58.812,14.98 58.876,14.98 Z M51.574,14.308 C51.642,14.308 51.798,14.262 52.042,14.17 C52.286,14.078 52.444,14.008 52.516,13.96 C52.588,13.912 52.624,13.844 52.624,13.756 L52.624,13.756 L52.624,13.048 L54.58,13.048 L54.58,13.804 C54.58,13.892 54.602,13.936 54.646,13.936 C54.69,13.936 54.802,13.906 54.982,13.846 C55.162,13.786 55.314,13.726 55.438,13.666 C55.562,13.606 55.634,13.562 55.654,13.534 C55.674,13.506 55.684,13.472 55.684,13.432 L55.684,13.432 L55.672,13.024 C55.664,12.88 55.66,12.632 55.66,12.28 L55.66,6.964 C55.964,6.844 56.116,6.73 56.116,6.622 C56.116,6.514 55.944,6.352 55.6,6.136 C55.256,5.92 55.052,5.812 54.988,5.812 C54.924,5.812 54.864,5.856 54.808,5.944 L54.808,5.944 L54.484,6.424 L53.32,6.424 C53.784,5.568 54.074,5.05 54.19,4.87 C54.306,4.69 54.412,4.588 54.508,4.564 C54.636,4.532 54.7,4.476 54.7,4.396 C54.7,4.348 54.676,4.304 54.628,4.264 C54.58,4.224 54.4,4.144 54.088,4.024 C53.776,3.904 53.444,3.808 53.092,3.736 C53.084,4.416 52.96,5.3 52.72,6.388 C52.352,6.172 51.948,5.988 51.508,5.836 C51.532,6.18 51.544,6.52 51.544,6.856 L51.544,6.856 L51.544,12.976 C51.544,13.4 51.524,13.796 51.484,14.164 C51.476,14.26 51.506,14.308 51.574,14.308 Z M54.58,9.508 L52.624,9.508 L52.624,6.808 L54.58,6.808 L54.58,9.508 Z M58.03,11.704 C58.146,11.704 58.296,11.592 58.48,11.368 C58.664,11.144 58.756,10.888 58.756,10.6 C58.756,10.44 58.72,10.312 58.648,10.216 C58.576,10.12 58.428,9.968 58.204,9.76 C57.98,9.552 57.58,9.24 57.004,8.824 L57.004,8.824 L56.872,8.992 C57.104,9.312 57.302,9.678 57.466,10.09 C57.63,10.502 57.736,10.874 57.784,11.206 C57.832,11.538 57.914,11.704 58.03,11.704 Z M54.58,12.664 L52.624,12.664 L52.624,9.904 L54.58,9.904 L54.58,12.664 Z M62.476,10.036 C63.484,9.724 64.446,9.292 65.362,8.74 C66.278,8.188 66.992,7.592 67.504,6.952 L67.504,6.952 L67.504,7.48 L67.468,8.908 C67.468,8.98 67.478,9.03 67.498,9.058 C67.518,9.086 67.588,9.1 67.708,9.1 C67.828,9.1 67.986,9.066 68.182,8.998 C68.378,8.93 68.494,8.876 68.53,8.836 C68.566,8.796 68.584,8.736 68.584,8.656 L68.584,8.656 L68.56,7.3 L68.56,6.676 L68.98,6.676 C69.244,7.244 69.55,7.708 69.898,8.068 C70.246,8.428 70.72,8.764 71.32,9.076 C71.92,9.388 72.272,9.544 72.376,9.544 C72.448,9.544 72.496,9.504 72.52,9.424 C72.592,9.224 72.746,9.066 72.982,8.95 C73.218,8.834 73.516,8.776 73.876,8.776 L73.876,8.776 L73.876,8.548 C71.908,8.452 70.42,7.828 69.412,6.676 L69.412,6.676 L73.06,6.676 C73.204,6.676 73.276,6.62 73.276,6.508 C73.276,6.396 73.208,6.29 73.072,6.19 C72.936,6.09 72.744,5.94 72.496,5.74 C72.248,5.54 72.092,5.44 72.028,5.44 C71.964,5.44 71.892,5.496 71.812,5.608 L71.812,5.608 L71.296,6.316 L68.56,6.316 L68.56,5.284 C69.12,5.228 69.668,5.16 70.204,5.08 C70.74,5 71.056,4.96 71.152,4.96 C71.248,4.96 71.336,4.976 71.416,5.008 C71.496,5.04 71.568,5.056 71.632,5.056 C71.696,5.056 71.728,5.03 71.728,4.978 C71.728,4.926 71.714,4.878 71.686,4.834 C71.658,4.79 71.558,4.668 71.386,4.468 C71.214,4.268 71.024,4.068 70.816,3.868 C69.32,4.476 66.948,4.964 63.7,5.332 L63.7,5.332 L63.724,5.56 C65.06,5.536 66.32,5.476 67.504,5.38 L67.504,5.38 L67.504,6.316 L63.532,6.316 C63.3,6.316 63.1,6.296 62.932,6.256 L62.932,6.256 L63.136,6.736 C63.272,6.696 63.444,6.676 63.652,6.676 L63.652,6.676 L66.448,6.676 C65.888,7.388 65.318,7.962 64.738,8.398 C64.158,8.834 63.38,9.304 62.404,9.808 L62.404,9.808 L62.476,10.036 Z M67.39,15.028 C67.466,15.028 67.658,14.958 67.966,14.818 C68.274,14.678 68.49,14.534 68.614,14.386 C68.738,14.238 68.8,14.02 68.8,13.732 L68.8,13.732 L68.8,11.908 L73.204,11.908 C73.348,11.908 73.42,11.868 73.42,11.788 C73.42,11.708 73.246,11.514 72.898,11.206 C72.55,10.898 72.34,10.744 72.268,10.744 C72.196,10.744 72.12,10.8 72.04,10.912 L72.04,10.912 L71.548,11.56 L68.8,11.56 L68.8,11.008 C69.48,10.592 69.936,10.324 70.168,10.204 C70.4,10.084 70.604,10.024 70.78,10.024 L70.78,10.024 L71.032,10.036 C71.2,10.036 71.284,9.988 71.284,9.892 C71.284,9.796 71.2,9.688 71.032,9.568 C70.864,9.448 70.67,9.302 70.45,9.13 C70.23,8.958 70.096,8.872 70.048,8.872 C70,8.872 69.952,8.9 69.904,8.956 L69.904,8.956 L69.544,9.316 L65.38,9.316 C65.148,9.316 64.948,9.296 64.78,9.256 L64.78,9.256 L64.996,9.772 C65.116,9.716 65.284,9.688 65.5,9.688 L65.5,9.688 L69.484,9.688 C69.276,10.016 69.012,10.372 68.692,10.756 C68.38,10.612 68.028,10.496 67.636,10.408 C67.66,10.704 67.672,11.088 67.672,11.56 L67.672,11.56 L63.736,11.56 C63.504,11.56 63.304,11.54 63.136,11.5 L63.136,11.5 L63.352,11.992 C63.472,11.936 63.64,11.908 63.856,11.908 L63.856,11.908 L67.672,11.908 L67.672,13.468 C67.672,13.572 67.654,13.644 67.618,13.684 C67.582,13.724 67.48,13.744 67.312,13.744 C67.144,13.744 66.648,13.672 65.824,13.528 L65.824,13.528 L65.776,13.756 C66.144,13.876 66.422,13.99 66.61,14.098 C66.798,14.206 66.934,14.316 67.018,14.428 C67.102,14.54 67.172,14.688 67.228,14.872 C67.26,14.976 67.314,15.028 67.39,15.028 Z M74.632,7.9 C75.552,7.252 76.38,6.456 77.116,5.512 L77.116,5.512 L77.644,5.512 C77.988,6 78.188,6.496 78.244,7 C78.26,7.112 78.292,7.202 78.34,7.27 C78.388,7.338 78.448,7.372 78.52,7.372 C78.656,7.372 78.802,7.274 78.958,7.078 C79.114,6.882 79.192,6.702 79.192,6.538 C79.192,6.374 79.114,6.222 78.958,6.082 C78.802,5.942 78.48,5.752 77.992,5.512 L77.992,5.512 L80.584,5.512 C80.704,5.512 80.764,5.478 80.764,5.41 C80.764,5.342 80.622,5.164 80.338,4.876 C80.054,4.588 79.874,4.444 79.798,4.444 C79.722,4.444 79.648,4.492 79.576,4.588 L79.576,4.588 L79.144,5.188 L77.344,5.188 C77.544,4.924 77.69,4.746 77.782,4.654 C77.874,4.562 77.974,4.504 78.082,4.48 C78.19,4.456 78.244,4.422 78.244,4.378 C78.244,4.334 78.172,4.268 78.028,4.18 C77.884,4.092 77.528,3.912 76.96,3.64 C76.424,5.112 75.6,6.488 74.488,7.768 L74.488,7.768 L74.632,7.9 Z M83.242,7.408 C83.374,7.408 83.508,7.33 83.644,7.174 C83.78,7.018 83.848,6.858 83.848,6.694 C83.848,6.53 83.75,6.346 83.554,6.142 C83.358,5.938 83.076,5.728 82.708,5.512 L82.708,5.512 L85.492,5.512 C85.652,5.512 85.732,5.48 85.732,5.416 C85.732,5.36 85.58,5.178 85.276,4.87 C84.972,4.562 84.78,4.408 84.7,4.408 C84.62,4.408 84.552,4.448 84.496,4.528 L84.496,4.528 L84.052,5.164 L82.24,5.164 C82.456,4.876 82.602,4.69 82.678,4.606 C82.754,4.522 82.838,4.468 82.93,4.444 C83.022,4.42 83.068,4.384 83.068,4.336 C83.068,4.288 83.056,4.252 83.032,4.228 C83.008,4.204 82.866,4.132 82.606,4.012 C82.346,3.892 82.104,3.784 81.88,3.688 C81.632,4.44 81.36,5.074 81.064,5.59 C80.768,6.106 80.372,6.64 79.876,7.192 L79.876,7.192 L80.008,7.324 C80.736,6.852 81.396,6.248 81.988,5.512 L81.988,5.512 L82.348,5.512 C82.652,5.952 82.844,6.472 82.924,7.072 C82.94,7.208 82.964,7.298 82.996,7.342 C83.028,7.386 83.11,7.408 83.242,7.408 Z M76.168,14.632 C76.2,14.632 76.244,14.604 76.3,14.548 C76.516,14.332 77.436,13.756 79.06,12.82 C79.212,13.076 79.348,13.412 79.468,13.828 C79.508,13.948 79.548,14.034 79.588,14.086 C79.628,14.138 79.694,14.164 79.786,14.164 C79.878,14.164 79.992,14.062 80.128,13.858 C80.264,13.654 80.332,13.452 80.332,13.252 C80.332,12.7 79.692,12.244 78.412,11.884 L78.412,11.884 L78.364,12.052 C78.596,12.22 78.776,12.4 78.904,12.592 L78.904,12.592 L76.888,13.228 L76.888,11.272 L79.096,11.272 L79.096,11.584 C79.096,11.672 79.128,11.716 79.192,11.716 C79.32,11.716 79.47,11.688 79.642,11.632 C79.814,11.576 79.932,11.52 79.996,11.464 C80.06,11.408 80.092,11.336 80.092,11.248 L80.092,11.248 L80.068,10.144 L80.068,8.236 C80.292,8.092 80.404,7.992 80.404,7.936 C80.404,7.88 80.264,7.762 79.984,7.582 C79.704,7.402 79.53,7.312 79.462,7.312 C79.394,7.312 79.332,7.36 79.276,7.456 L79.276,7.456 L79.096,7.732 L77.02,7.732 C76.772,7.524 76.408,7.356 75.928,7.228 C75.944,7.54 75.952,7.896 75.952,8.296 L75.952,8.296 L75.952,12.94 C75.952,13.18 75.926,13.338 75.874,13.414 C75.822,13.49 75.692,13.572 75.484,13.66 C75.852,14.308 76.08,14.632 76.168,14.632 Z M80.992,15.088 C81.088,15.088 81.24,15.05 81.448,14.974 C81.656,14.898 81.792,14.834 81.856,14.782 C81.92,14.73 81.952,14.66 81.952,14.572 L81.952,14.572 L81.952,8.236 L83.68,8.236 L83.68,12.196 C83.68,12.308 83.658,12.386 83.614,12.43 C83.57,12.474 83.46,12.496 83.284,12.496 C83.108,12.496 82.76,12.464 82.24,12.4 L82.24,12.4 L82.204,12.58 C82.676,12.756 82.982,12.9 83.122,13.012 C83.262,13.124 83.36,13.28 83.416,13.48 C83.456,13.616 83.508,13.684 83.572,13.684 C83.636,13.684 83.812,13.598 84.1,13.426 C84.388,13.254 84.564,13.098 84.628,12.958 C84.692,12.818 84.724,12.572 84.724,12.22 L84.724,12.22 L84.724,8.356 C84.956,8.244 85.072,8.158 85.072,8.098 C85.072,8.038 84.91,7.906 84.586,7.702 C84.262,7.498 84.08,7.396 84.04,7.396 C84,7.396 83.956,7.424 83.908,7.48 L83.908,7.48 L83.596,7.888 L82.06,7.888 C81.764,7.696 81.396,7.524 80.956,7.372 C80.972,7.716 80.98,8.132 80.98,8.62 L80.98,8.62 L80.98,13.348 C80.98,13.828 80.972,14.224 80.956,14.536 L80.956,14.536 L80.932,14.992 C80.932,15.056 80.952,15.088 80.992,15.088 Z M79.096,9.328 L76.888,9.328 L76.888,8.056 L79.096,8.056 L79.096,9.328 Z M79.096,10.948 L76.888,10.948 L76.888,9.676 L79.096,9.676 L79.096,10.948 Z" id="Shape"></path> <path d="M4.324,14 L4.936,10.52 L7.444,10.52 L7.72,8.972 L5.212,8.972 L5.596,6.8 L8.284,6.8 L8.56,5.24 L4.036,5.24 L2.488,14 L4.324,14 Z M13.528,14.144 C15.424,14.144 16.816,12.92 16.816,11.204 C16.816,9.992 15.988,9.344 15.004,8.84 C14.224,8.444 13.756,8.12 13.756,7.616 C13.756,7.1 14.128,6.632 14.968,6.632 C15.496,6.632 16.012,6.824 16.48,7.208 L17.524,5.84 C16.9,5.348 16.144,5.096 15.16,5.096 C13.192,5.096 11.848,6.284 11.848,7.904 C11.848,9.02 12.592,9.632 13.504,10.112 C14.332,10.568 14.92,10.928 14.92,11.588 C14.92,12.188 14.452,12.62 13.624,12.62 C13.024,12.62 12.364,12.38 11.824,11.876 L10.756,13.184 C11.476,13.844 12.436,14.144 13.528,14.144 Z M19.468,14 L20.056,10.736 L21.16,10.736 C23.116,10.736 24.724,9.416 24.724,7.46 C24.724,6.26 23.908,5.24 22.132,5.24 L19.156,5.24 L17.608,14 L19.468,14 Z M21.208,9.224 L20.308,9.224 L20.74,6.74 L21.592,6.74 C22.468,6.74 22.876,7.1 22.876,7.7 C22.876,8.636 22.12,9.224 21.208,9.224 Z M28.996,14.144 C31.696,14.144 34.144,11.912 34.144,8.852 C34.144,6.776 32.728,5.096 30.256,5.096 C27.46,5.096 25.012,7.232 25.012,10.34 C25.012,12.668 26.656,14.144 28.996,14.144 Z M29.2,12.512 C27.748,12.512 26.932,11.576 26.932,10.124 C26.932,8.48 28.108,6.716 29.956,6.716 C31.504,6.716 32.236,7.676 32.236,9.068 C32.236,10.892 30.856,12.512 29.2,12.512 Z M36.34,14 L36.988,10.34 L38.968,14 L41.068,14 L39.028,10.34 C40.3,10.172 41.62,9.152 41.62,7.4 C41.62,6.236 40.708,5.24 39.004,5.24 L36.04,5.24 L34.492,14 L36.34,14 Z M38.068,9.248 L37.168,9.248 L37.612,6.74 L38.512,6.74 C39.412,6.74 39.772,7.172 39.772,7.712 C39.772,8.624 39.088,9.248 38.068,9.248 Z M45.052,14 L46.312,6.8 L48.112,6.8 L48.4,5.24 L42.952,5.24 L42.676,6.8 L44.476,6.8 L43.204,14 L45.052,14 Z" id="Shape"></path> </g> </g> </svg>