<?xml version="1.0" encoding="utf-8"?>
<!-- Generator: Adobe Illustrator 23.0.1, SVG Export Plug-In . SVG Version: 6.00 Build 0)  -->
<svg version="1.1" id="Layer_1" xmlns="http://www.w3.org/2000/svg" xmlns:xlink="http://www.w3.org/1999/xlink" x="0px" y="0px"
	 width="100.5px" height="17px" viewBox="0 0 100.5 17" style="enable-background:new 0 0 100.5 17;" xml:space="preserve">
<style type="text/css">
	.st0{fill-rule:evenodd;clip-rule:evenodd;fill:#FFA500;}
	.st1{fill:#ffffff;}
	.st2{fill:url(#SVGID_1_);}
	.st3{fill:url(#SVGID_2_);}
	.st4{fill:url(#SVGID_3_);}
	.st5{fill-rule:evenodd;clip-rule:evenodd;fill:url(#SVGID_4_);}
</style>
<g>
	<path class="st0" d="M48.8,0.9L52,0v2.7l-3.1,0.9V0.9z"/>
	<path class="st1" d="M0,1.5l3.4-0.9v13.1H0V1.5z M14,13.6h-3.1V8.9c0-1.2,0.1-2.5-1.4-2.5c-1.5,0-1.8,0.9-1.8,2v5.3H4.5V4.5l3-0.8
		v1.7c0.3-0.5,0.8-1,1.3-1.3c0.5-0.3,1.1-0.5,1.8-0.5c2.5,0,3.4,1.4,3.4,3.8V13.6z M17,13.6L13.8,4h3.3l1.8,6.5L20.7,4h3.1l-3.2,9.7
		H17z M30.1,7.4C30,7,29.8,6.6,29.4,6.3c-0.3-0.3-0.8-0.5-1.2-0.5c-1.4,0-2.1,1.3-2.1,2.7L30.1,7.4z M28.5,11.8c0.7,0,1.3-0.2,2-0.5
		c0.6-0.3,1.1-0.7,1.6-1.3l0.9,2.3c-1.3,1-2.9,1.5-4.5,1.5c-3.1,0-5.3-1.8-5.3-5.1c0-0.7,0.1-1.4,0.4-2c0.3-0.6,0.6-1.2,1.1-1.7
		c0.5-0.5,1.1-0.9,1.7-1.1c0.6-0.2,1.3-0.4,2-0.3c3,0,4.9,2,4.9,5.1l-6.6,1.9c0.2,0.4,0.5,0.7,0.9,0.9
		C27.7,11.8,28.1,11.9,28.5,11.8z M39.2,7.7c0.7,0.1,1.4,0.3,2.1,0.6c0.4,0.2,0.7,0.6,0.9,0.9c0.2,0.4,0.3,0.8,0.4,1.2
		c0,2.6-2.4,3.5-4.6,3.5s-4.2-0.7-4.6-2.9l2.6-0.8c0,0.2,0.1,0.5,0.2,0.7c0.1,0.2,0.3,0.4,0.4,0.6c0.2,0.2,0.4,0.3,0.6,0.3
		c0.2,0.1,0.5,0.1,0.7,0.1c0.6,0,1.6-0.3,1.6-1.1c0-0.8-1-0.9-1.6-1l-1.2-0.3c-1.6-0.3-3.1-0.8-3.1-2.9c0-2.1,2.5-3,4.4-3
		c1.9,0,4.1,0.6,4.4,2.5l-2.7,0.7c-0.1-0.9-0.7-1.2-1.7-1.2c-1,0-1.1,0.1-1.1,0.7c0,0.6,1.1,0.9,1.6,1L39.2,7.7z M46.1,6.1v4.3
		c0,0.4,0.1,0.8,0.6,0.9c0.6,0.1,1.2,0.1,1.7-0.1l-0.6,2.5h-1.4c-2.6,0-3.4-0.7-3.4-3.4v-8l3.1-0.9V4h2.3l-0.6,2.1H46.1z M48.8,4.6
		L52,3.7v10h-3.1V4.6z M59.4,8.9c0-1.2,0.1-2.5-1.5-2.5c-0.3,0-0.5,0.1-0.7,0.2c-0.2,0.1-0.4,0.3-0.6,0.4c-0.2,0.2-0.3,0.4-0.4,0.7
		c-0.1,0.2-0.1,0.5-0.1,0.8v5.3h-3.1V4.5l3-0.8v1.7c0.3-0.5,0.8-1,1.3-1.3c0.5-0.3,1.1-0.5,1.8-0.5c2.5,0,3.4,1.4,3.4,3.8v6.2h-3.1
		V8.9z M68.2,6.1c-1.4,0-1.9,1.2-1.9,2.4s0.5,2.3,1.8,2.3s1.9-1,1.9-2.2S69.6,6.1,68.2,6.1z M68.1,17c-1.9,0-3.9-0.5-4.5-2.6
		l2.8-0.7c0.1,0.4,0.4,0.7,0.7,1s0.7,0.4,1.1,0.3c1.3,0,1.8-1.1,1.8-2.3v-0.9c-0.3,0.4-0.6,0.8-1.1,1.1s-1,0.4-1.5,0.4
		c-2.9,0-4.2-2-4.2-4.8c0-2.7,1.5-4.8,4.2-4.8c0.5,0,1,0.1,1.5,0.4c0.5,0.3,0.8,0.7,1.1,1.1V4.5l3-0.8v8.8C73,15.5,70.8,17,68.1,17z
		"/>
	
		<linearGradient id="SVGID_1_" gradientUnits="userSpaceOnUse" x1="75.1872" y1="25.5876" x2="86.0612" y2="9.3347" gradientTransform="matrix(1 0 0 -1 0 27.4099)">
		<stop  offset="0" style="stop-color:#FF6B00"/>
		<stop  offset="1" style="stop-color:#FFA500"/>
	</linearGradient>
	<path class="st2" d="M74.6,0h4.7c0.7,0,1.3,0.1,1.9,0.2c0.6,0.1,1.2,0.3,1.6,0.7c0.5,0.3,0.8,0.7,1.1,1.2c0.3,0.5,0.4,1.1,0.4,1.9
		c0,0.9-0.1,1.6-0.4,2.1c-0.3,0.5-0.7,0.9-1.2,1.2c-0.5,0.3-1.1,0.5-1.8,0.6C80.2,8,79.5,8,78.8,8H77v5.7h-2.5V0z M78.5,6
		c0.4,0,0.7,0,1.1,0c0.4,0,0.7-0.1,1-0.2c0.3-0.1,0.6-0.3,0.8-0.6c0.2-0.3,0.3-0.6,0.3-1.1c0-0.4-0.1-0.8-0.3-1
		c-0.2-0.3-0.4-0.5-0.7-0.6c-0.3-0.1-0.6-0.2-1-0.3c-0.4,0-0.7-0.1-1-0.1H77V6H78.5z"/>
	
		<linearGradient id="SVGID_2_" gradientUnits="userSpaceOnUse" x1="80.7431" y1="29.3048" x2="91.6171" y2="13.0519" gradientTransform="matrix(1 0 0 -1 0 27.4099)">
		<stop  offset="0" style="stop-color:#FF6B00"/>
		<stop  offset="1" style="stop-color:#FFA500"/>
	</linearGradient>
	<path class="st3" d="M85,4.4h2.4v1.5h0c0.3-0.5,0.6-1,1.1-1.3c0.5-0.3,1-0.4,1.7-0.4c0.1,0,0.3,0,0.4,0c0.1,0,0.4,0.1,0.4,0.1
		l-1.1,2.1c0,0-1,0.1-1.3,0.3c-0.3,0.2-0.6,0.4-0.8,0.7c-0.2,0.3-0.3,0.5-0.4,0.8c-0.1,0.3-0.1,0.5-0.1,0.6v5H85V4.4z"/>
	
		<linearGradient id="SVGID_3_" gradientUnits="userSpaceOnUse" x1="85.7677" y1="32.6665" x2="96.6417" y2="16.4136" gradientTransform="matrix(1 0 0 -1 0 27.4099)">
		<stop  offset="0" style="stop-color:#FF6B00"/>
		<stop  offset="1" style="stop-color:#FFA500"/>
	</linearGradient>
	<path class="st4" d="M90.2,9.1c0-0.7,0.1-1.4,0.4-2c0.3-0.6,0.6-1.1,1.1-1.6c0.5-0.4,1-0.8,1.6-1c0.6-0.2,1.3-0.3,2-0.3
		s1.4,0.1,2,0.3c0.6,0.2,1.2,0.6,1.6,1c0.5,0.4,0.8,0.9,1.1,1.6c0.3,0.6,0.4,1.3,0.4,2c0,0.7-0.1,1.4-0.4,2
		c-0.3,0.6-0.6,1.1-1.1,1.5c-0.5,0.4-1,0.8-1.6,1c-0.6,0.2-1.3,0.3-2,0.3s-1.4-0.1-2-0.3c-0.6-0.2-1.2-0.6-1.6-1
		c-0.5-0.4-0.8-0.9-1.1-1.5C90.4,10.5,90.2,9.8,90.2,9.1z M92.6,9.1c0,0.4,0.1,0.7,0.2,1c0.1,0.3,0.3,0.6,0.5,0.9
		c0.2,0.3,0.5,0.5,0.9,0.6c0.3,0.2,0.7,0.2,1.2,0.2s0.8-0.1,1.2-0.2c0.3-0.2,0.6-0.4,0.9-0.6c0.2-0.3,0.4-0.6,0.5-0.9
		c0.1-0.3,0.2-0.7,0.2-1c0-0.4-0.1-0.7-0.2-1c-0.1-0.3-0.3-0.6-0.5-0.9c-0.2-0.3-0.5-0.5-0.9-0.6c-0.3-0.2-0.7-0.2-1.2-0.2
		s-0.8,0.1-1.2,0.2c-0.3,0.2-0.6,0.4-0.9,0.6c-0.2,0.3-0.4,0.6-0.5,0.9C92.7,8.4,92.6,8.7,92.6,9.1z"/>
</g>
</svg>
