<?xml version="1.0" encoding="utf-8"?>
<!-- Generator: Adobe Illustrator 23.0.1, SVG Export Plug-In . SVG Version: 6.00 Build 0)  -->
<svg version="1.1" id="Layer_1" xmlns="http://www.w3.org/2000/svg" xmlns:xlink="http://www.w3.org/1999/xlink" x="0px" y="0px"
	 width="14.6px" height="16.3px" viewBox="0 0 14.6 16.3" style="enable-background:new 0 0 14.6 16.3;" xml:space="preserve">
<style type="text/css">
	.st0{fill-rule:evenodd;clip-rule:evenodd;fill:#FFA500;}
	.st1{fill:#222222;}
	.st2{fill:url(#SVGID_1_);}
	.st3{fill:url(#SVGID_2_);}
	.st4{fill:url(#SVGID_3_);}
	.st5{fill-rule:evenodd;clip-rule:evenodd;fill:url(#SVGID_4_);}
</style>
<linearGradient id="SVGID_1_" gradientUnits="userSpaceOnUse" x1="0.4822" y1="92.2763" x2="13.543" y2="82.8435" gradientTransform="matrix(1 0 0 -1 0 94.2479)">
	<stop  offset="0" style="stop-color:#FF6B00"/>
	<stop  offset="1" style="stop-color:#FFA500"/>
</linearGradient>
<path style="fill-rule:evenodd;clip-rule:evenodd;fill:url(#SVGID_1_);" d="M7.3,0C6.6,0,5.4,0.3,4.3,0.6c-1,0.3-2,0.6-3,0.9
	C1,1.5,0.7,1.7,0.5,1.9C0.3,2.2,0.2,2.5,0.1,2.7c-0.6,4.6,0.8,8,2.6,10.2c0.3,0.3,0.6,0.7,0.9,1V3.7h3.8c0.5,0,1.1,0.1,1.6,0.2
	c0.5,0.1,1,0.3,1.3,0.5c0.4,0.2,0.7,0.6,0.9,1c0.2,0.4,0.4,0.9,0.4,1.6c0,0.7-0.1,1.3-0.4,1.7c-0.2,0.4-0.6,0.8-1,1
	c-0.4,0.2-0.9,0.4-1.5,0.5c-0.5,0.1-1.1,0.1-1.7,0.1H5.6v5.3c0.3,0.2,0.6,0.3,0.8,0.5c0.3,0.1,0.6,0.2,0.9,0.2
	c0.3,0,0.6-0.1,0.9-0.2c0.4-0.2,0.7-0.4,1.1-0.6c1-0.7,1.9-1.5,2.6-2.5c1.8-2.2,3.2-5.6,2.6-10.2c-0.1-0.6-0.5-1.1-1.1-1.3
	c-1-0.3-2-0.6-3-0.9C9.2,0.3,8,0,7.3,0z M7.7,8.6c-0.3,0-0.6,0-0.9,0H5.6V5.4H7c0.3,0,0.5,0,0.8,0c0.3,0,0.5,0.1,0.8,0.2
	C8.9,5.8,9.1,6,9.2,6.2C9.4,6.4,9.5,6.7,9.5,7c0,0.4-0.1,0.7-0.3,0.9C9.1,8.1,8.8,8.3,8.6,8.4C8.3,8.5,8,8.6,7.7,8.6z"/>
</svg>
