<?xml version="1.0" encoding="UTF-8"?> <svg width="39px" height="17px" viewBox="0 0 39 17" version="1.1" xmlns="http://www.w3.org/2000/svg" xmlns:xlink="http://www.w3.org/1999/xlink"> <title>legal</title> <g id="728x90_ch_vancuver_nxFS2" stroke="none" stroke-width="1" fill="none" fill-rule="evenodd"> <g id="legal"> <rect id="Rectangle" fill-opacity="0" fill="#D8D8D8" x="4" y="0" width="35" height="17"></rect> <path d="M8.306,12.02 C8.798,11.888 9.185,11.754 9.467,11.618 C9.749,11.482 10.011,11.303 10.253,11.081 C10.495,10.859 10.667,10.664 10.769,10.496 C10.871,10.328 10.978,10.04 11.09,9.632 L11.09,9.632 L11.09,11.402 C11.09,11.538 11.104,11.637 11.132,11.699 C11.16,11.761 11.22,11.805 11.312,11.831 C11.404,11.857 11.573,11.881 11.819,11.903 C12.065,11.925 12.309,11.936 12.551,11.936 C12.793,11.936 13.022,11.922 13.238,11.894 C13.454,11.866 13.597,11.785 13.667,11.651 C13.737,11.517 13.772,11.424 13.772,11.372 C13.772,11.34 13.74,11.306 13.676,11.27 C13.592,11.226 13.533,11.179 13.499,11.129 C13.465,11.079 13.442,10.985 13.43,10.847 C13.418,10.709 13.412,10.48 13.412,10.16 L13.412,10.16 L13.268,10.16 C13.188,10.896 13.112,11.291 13.04,11.345 C12.968,11.399 12.726,11.426 12.314,11.426 C12.126,11.426 11.973,11.42 11.855,11.408 C11.737,11.396 11.669,11.379 11.651,11.357 C11.633,11.335 11.624,11.288 11.624,11.216 L11.624,11.216 L11.624,9.632 L12.356,9.632 L12.356,9.932 C12.356,9.964 12.37,9.98 12.398,9.98 C12.454,9.98 12.532,9.962 12.632,9.926 C12.732,9.89 12.8,9.857 12.836,9.827 C12.872,9.797 12.89,9.764 12.89,9.728 L12.89,9.728 L12.878,9.542 C12.874,9.41 12.872,9.286 12.872,9.17 L12.872,9.17 L12.872,8.558 C13.016,8.47 13.088,8.406 13.088,8.366 C13.088,8.35 13.077,8.331 13.055,8.309 C13.033,8.287 12.945,8.229 12.791,8.135 C12.637,8.041 12.544,7.994 12.512,7.994 C12.48,7.994 12.452,8.01 12.428,8.042 L12.428,8.042 L12.302,8.222 L11.354,8.222 C11.486,8.082 11.629,7.942 11.783,7.802 C11.937,7.662 12.046,7.58 12.11,7.556 C12.174,7.532 12.246,7.52 12.326,7.52 C12.406,7.52 12.446,7.494 12.446,7.442 C12.446,7.402 12.416,7.36 12.356,7.316 L12.356,7.316 L12.074,7.088 C11.942,6.984 11.862,6.932 11.834,6.932 C11.806,6.932 11.772,6.958 11.732,7.01 L11.732,7.01 L11.558,7.226 L10.406,7.226 C10.442,7.186 10.495,7.118 10.565,7.022 C10.635,6.926 10.685,6.87 10.715,6.854 C10.745,6.838 10.786,6.828 10.838,6.824 C10.922,6.82 10.964,6.794 10.964,6.746 C10.964,6.722 10.949,6.697 10.919,6.671 C10.889,6.645 10.67,6.536 10.262,6.344 C9.762,7.432 9.102,8.292 8.282,8.924 L8.282,8.924 L8.342,9.032 C8.682,8.82 8.982,8.62 9.242,8.432 L9.242,8.432 L9.242,9.506 C9.242,9.706 9.232,9.904 9.212,10.1 C9.208,10.14 9.222,10.16 9.254,10.16 C9.286,10.16 9.347,10.149 9.437,10.127 C9.527,10.105 9.597,10.082 9.647,10.058 C9.697,10.034 9.727,10.015 9.737,10.001 C9.747,9.987 9.752,9.96 9.752,9.92 L9.752,9.92 L9.752,9.632 L10.58,9.632 C10.524,9.876 10.448,10.082 10.352,10.25 C10.256,10.418 10.112,10.612 9.92,10.832 C9.728,11.052 9.525,11.231 9.311,11.369 C9.097,11.507 8.748,11.69 8.264,11.918 L8.264,11.918 L8.306,12.02 Z M11.12,8.222 L9.818,8.222 C9.766,8.194 9.692,8.17 9.596,8.15 C9.844,7.942 10.072,7.688 10.28,7.388 L10.28,7.388 L11.534,7.388 C11.422,7.668 11.284,7.946 11.12,8.222 L11.12,8.222 Z M10.616,9.446 L9.752,9.446 L9.752,8.42 L10.7,8.42 C10.696,8.82 10.668,9.162 10.616,9.446 L10.616,9.446 Z M12.356,9.446 L11.12,9.446 C11.168,9.194 11.208,8.858 11.24,8.438 L11.24,8.438 L11.006,8.42 L12.356,8.42 L12.356,9.446 Z M14.318,8.486 C14.378,8.458 14.462,8.444 14.57,8.444 L14.57,8.444 L19.67,8.444 C19.75,8.444 19.79,8.43 19.79,8.402 C19.79,8.362 19.705,8.258 19.535,8.09 C19.365,7.922 19.262,7.838 19.226,7.838 C19.202,7.838 19.176,7.858 19.148,7.898 L19.148,7.898 L18.896,8.246 L17.324,8.246 L17.324,7.772 L18.902,7.772 C18.982,7.772 19.022,7.756 19.022,7.724 C19.022,7.692 18.96,7.61 18.836,7.478 C18.712,7.346 18.635,7.28 18.605,7.28 C18.575,7.28 18.548,7.296 18.524,7.328 L18.524,7.328 L18.314,7.574 L17.324,7.574 L17.324,7.154 L19.388,7.154 C19.468,7.154 19.508,7.137 19.508,7.103 C19.508,7.069 19.423,6.97 19.253,6.806 C19.083,6.642 18.976,6.56 18.932,6.56 C18.912,6.56 18.89,6.576 18.866,6.608 L18.866,6.608 L18.62,6.956 L17.324,6.956 L17.324,6.668 C17.472,6.608 17.546,6.556 17.546,6.512 C17.546,6.444 17.286,6.37 16.766,6.29 C16.774,6.434 16.778,6.656 16.778,6.956 L16.778,6.956 L14.942,6.956 C14.826,6.956 14.726,6.946 14.642,6.926 L14.642,6.926 L14.75,7.196 C14.81,7.168 14.894,7.154 15.002,7.154 L15.002,7.154 L16.778,7.154 L16.778,7.574 L15.266,7.574 C15.15,7.574 15.05,7.564 14.966,7.544 L14.966,7.544 L15.074,7.814 C15.134,7.786 15.218,7.772 15.326,7.772 L15.326,7.772 L16.778,7.772 L16.778,8.246 L14.51,8.246 C14.394,8.246 14.294,8.236 14.21,8.216 L14.21,8.216 L14.318,8.486 Z M15.257,11.096 C15.291,11.096 15.367,11.074 15.485,11.03 C15.603,10.986 15.678,10.951 15.71,10.925 C15.742,10.899 15.758,10.866 15.758,10.826 L15.758,10.826 L18.266,10.826 C18.27,10.882 18.29,10.91 18.326,10.91 C18.394,10.91 18.486,10.893 18.602,10.859 C18.718,10.825 18.783,10.8 18.797,10.784 C18.811,10.768 18.818,10.736 18.818,10.688 L18.818,10.688 L18.812,10.238 L18.812,9.086 C18.936,9.018 18.998,8.966 18.998,8.93 C18.998,8.894 18.912,8.823 18.74,8.717 C18.568,8.611 18.471,8.558 18.449,8.558 C18.427,8.558 18.406,8.572 18.386,8.6 L18.386,8.6 L18.224,8.828 L15.8,8.828 C15.56,8.708 15.364,8.62 15.212,8.564 C15.224,8.732 15.23,8.904 15.23,9.08 L15.23,9.08 L15.23,10.328 C15.23,10.48 15.226,10.616 15.218,10.736 L15.218,10.736 L15.206,11.042 C15.206,11.078 15.223,11.096 15.257,11.096 Z M18.266,9.434 L15.758,9.434 L15.758,9.014 L18.266,9.014 L18.266,9.434 Z M18.266,10.028 L15.758,10.028 L15.758,9.614 L18.266,9.614 L18.266,10.028 Z M18.266,10.64 L15.758,10.64 L15.758,10.202 L18.266,10.202 L18.266,10.64 Z M14.384,12.14 C14.74,12.088 15.048,12.02 15.308,11.936 C15.568,11.852 15.948,11.682 16.448,11.426 C16.532,11.382 16.591,11.355 16.625,11.345 C16.659,11.335 16.711,11.33 16.781,11.33 C16.851,11.33 16.886,11.318 16.886,11.294 C16.886,11.27 16.827,11.208 16.709,11.108 C16.591,11.008 16.468,10.924 16.34,10.856 C15.716,11.38 15.058,11.774 14.366,12.038 L14.366,12.038 L14.384,12.14 Z M19.085,12.116 C19.131,12.116 19.172,12.091 19.208,12.041 C19.244,11.991 19.262,11.924 19.262,11.84 C19.262,11.756 19.233,11.653 19.175,11.531 C19.117,11.409 18.982,11.308 18.77,11.228 C18.558,11.148 18.11,11.056 17.426,10.952 L17.426,10.952 L17.414,11.054 C17.774,11.246 18.059,11.411 18.269,11.549 C18.479,11.687 18.694,11.848 18.914,12.032 C18.982,12.088 19.039,12.116 19.085,12.116 Z M20.648,7.868 C20.72,7.848 20.806,7.838 20.906,7.838 L20.906,7.838 L23.03,7.838 C23.118,7.838 23.162,7.819 23.162,7.781 C23.162,7.743 23.092,7.671 22.952,7.565 C22.812,7.459 22.728,7.406 22.7,7.406 C22.672,7.406 22.642,7.428 22.61,7.472 L22.61,7.472 L22.466,7.676 L21.98,7.676 L21.98,7.28 L23.204,7.28 C23.288,7.28 23.33,7.261 23.33,7.223 C23.33,7.185 23.254,7.101 23.102,6.971 C22.95,6.841 22.854,6.776 22.814,6.776 C22.774,6.776 22.736,6.804 22.7,6.86 L22.7,6.86 L22.526,7.118 L21.98,7.118 L21.98,6.746 C22.112,6.682 22.178,6.637 22.178,6.611 C22.178,6.585 22.157,6.563 22.115,6.545 C22.073,6.527 22.001,6.502 21.899,6.47 C21.797,6.438 21.67,6.408 21.518,6.38 C21.526,6.532 21.53,6.706 21.53,6.902 L21.53,6.902 L21.53,7.118 L20.684,7.118 C20.568,7.118 20.468,7.108 20.384,7.088 L20.384,7.088 L20.486,7.31 C20.558,7.29 20.644,7.28 20.744,7.28 L20.744,7.28 L21.53,7.28 L21.53,7.676 L20.846,7.676 C20.73,7.676 20.63,7.666 20.546,7.646 L20.546,7.646 L20.648,7.868 Z M20.3,10.334 C20.752,9.942 21,9.494 21.044,8.99 L21.044,8.99 L22.514,8.99 L22.514,9.074 C22.514,9.114 22.538,9.134 22.586,9.134 C22.666,9.134 22.745,9.12 22.823,9.092 C22.901,9.064 22.94,9.028 22.94,8.984 L22.94,8.984 L22.928,8.66 L22.928,8.348 C23.06,8.296 23.126,8.25 23.126,8.21 C23.126,8.194 23.114,8.176 23.09,8.156 C23.178,8.116 23.24,8.086 23.276,8.066 L23.276,8.066 L23.36,8.21 C23.376,8.206 23.412,8.2 23.468,8.192 C23.588,8.448 23.748,8.674 23.948,8.87 C23.612,9.102 23.108,9.31 22.436,9.494 L22.436,9.494 L22.46,9.578 C23.168,9.542 23.752,9.376 24.212,9.08 C24.372,9.192 24.57,9.3 24.806,9.404 C25.042,9.508 25.18,9.56 25.22,9.56 C25.248,9.56 25.268,9.548 25.28,9.524 C25.328,9.424 25.382,9.356 25.442,9.32 C25.502,9.284 25.618,9.254 25.79,9.23 L25.79,9.23 L25.79,9.146 C25.338,9.118 24.916,9.018 24.524,8.846 C24.652,8.742 24.768,8.629 24.872,8.507 C24.976,8.385 25.04,8.316 25.064,8.3 C25.088,8.284 25.123,8.273 25.169,8.267 C25.215,8.261 25.238,8.242 25.238,8.21 C25.238,8.178 25.16,8.121 25.004,8.039 C24.848,7.957 24.756,7.916 24.728,7.916 C24.716,7.916 24.706,7.922 24.698,7.934 L24.698,7.934 L24.614,8.048 L23.33,8.048 C23.522,7.944 23.657,7.821 23.735,7.679 C23.813,7.537 23.854,7.304 23.858,6.98 L23.858,6.98 L24.464,6.98 L24.464,7.604 C24.464,7.688 24.497,7.748 24.563,7.784 C24.629,7.82 24.846,7.838 25.214,7.838 C25.582,7.838 25.766,7.8 25.766,7.724 C25.766,7.68 25.718,7.62 25.622,7.544 C25.526,7.468 25.452,7.43 25.4,7.43 C25.376,7.43 25.346,7.447 25.31,7.481 C25.274,7.515 25.191,7.532 25.061,7.532 C24.931,7.532 24.866,7.494 24.866,7.418 L24.866,7.418 L24.866,6.986 C24.998,6.926 25.064,6.88 25.064,6.848 C25.064,6.816 24.995,6.761 24.857,6.683 C24.719,6.605 24.636,6.566 24.608,6.566 C24.592,6.566 24.578,6.576 24.566,6.596 L24.566,6.596 L24.434,6.812 L23.918,6.812 C23.782,6.724 23.626,6.654 23.45,6.602 C23.462,6.726 23.468,6.842 23.468,6.95 C23.468,7.506 23.32,7.892 23.024,8.108 C22.828,7.996 22.712,7.94 22.676,7.94 C22.656,7.94 22.638,7.954 22.622,7.982 L22.622,7.982 L22.538,8.132 L21.068,8.132 C20.936,8.084 20.8,8.044 20.66,8.012 C20.672,8.256 20.678,8.518 20.678,8.798 C20.678,9.078 20.644,9.333 20.576,9.563 C20.508,9.793 20.392,10.02 20.228,10.244 L20.228,10.244 L20.3,10.334 Z M24.194,8.672 C23.966,8.524 23.778,8.364 23.63,8.192 L23.63,8.192 L24.602,8.192 C24.482,8.372 24.346,8.532 24.194,8.672 Z M21.584,8.828 L21.056,8.828 C21.072,8.512 21.092,8.332 21.116,8.288 L21.116,8.288 L21.584,8.288 L21.584,8.828 Z M22.514,8.828 L22.016,8.828 L22.016,8.288 L22.514,8.288 L22.514,8.828 Z M23.834,11.972 C23.898,11.972 23.977,11.956 24.071,11.924 C24.165,11.892 24.222,11.867 24.242,11.849 C24.262,11.831 24.272,11.806 24.272,11.774 L24.272,11.774 L24.248,11.306 L25.502,11.246 C25.614,11.242 25.67,11.224 25.67,11.192 C25.67,11.16 25.572,11.061 25.376,10.895 C25.18,10.729 25.065,10.646 25.031,10.646 C24.997,10.646 24.966,10.672 24.938,10.724 L24.938,10.724 L24.722,11.108 L24.248,11.126 L24.248,9.806 L24.854,9.806 C24.922,9.806 24.956,9.786 24.956,9.746 C24.956,9.722 24.936,9.693 24.896,9.659 C24.856,9.625 24.767,9.563 24.629,9.473 C24.491,9.383 24.408,9.338 24.38,9.338 C24.356,9.338 24.324,9.362 24.284,9.41 L24.284,9.41 L24.104,9.638 L21.212,9.638 C21.116,9.638 21.036,9.628 20.972,9.608 L20.972,9.608 L21.098,9.836 C21.15,9.816 21.22,9.806 21.308,9.806 L21.308,9.806 L21.596,9.806 L21.596,11.246 L20.594,11.288 C20.514,11.292 20.444,11.288 20.384,11.276 L20.384,11.276 L20.54,11.528 C20.596,11.488 20.674,11.466 20.774,11.462 L20.774,11.462 L23.774,11.324 L23.774,11.894 C23.774,11.946 23.794,11.972 23.834,11.972 Z M23.774,10.136 L22.064,10.136 L22.064,9.806 L23.774,9.806 L23.774,10.136 Z M23.774,10.67 L22.064,10.67 L22.064,10.298 L23.774,10.298 L23.774,10.67 Z M22.064,11.222 L22.064,10.838 L23.774,10.838 L23.774,11.15 L22.064,11.222 Z M30.524,11.948 C30.568,11.948 30.678,11.901 30.854,11.807 C31.03,11.713 31.137,11.619 31.175,11.525 C31.213,11.431 31.232,11.258 31.232,11.006 L31.232,11.006 L31.232,7.232 C31.428,7.152 31.526,7.092 31.526,7.052 C31.526,7.012 31.49,6.966 31.418,6.914 L31.418,6.914 L31.142,6.722 C31.026,6.642 30.955,6.602 30.929,6.602 C30.903,6.602 30.872,6.628 30.836,6.68 L30.836,6.68 L30.668,6.932 L29.786,6.932 C29.562,6.808 29.326,6.706 29.078,6.626 C29.098,7.05 29.108,7.483 29.108,7.925 C29.108,8.367 29.096,8.801 29.072,9.227 C29.048,9.653 29.011,9.97 28.961,10.178 C28.911,10.386 28.832,10.578 28.724,10.754 C28.616,10.93 28.469,11.104 28.283,11.276 C28.097,11.448 27.85,11.638 27.542,11.846 L27.542,11.846 L27.596,11.948 C28.248,11.668 28.72,11.383 29.012,11.093 C29.304,10.803 29.474,10.352 29.522,9.74 L29.522,9.74 L30.704,9.74 L30.704,10.994 C30.704,11.102 30.682,11.168 30.638,11.192 C30.594,11.216 30.519,11.228 30.413,11.228 C30.307,11.228 30.066,11.194 29.69,11.126 L29.69,11.126 L29.672,11.222 C29.892,11.306 30.053,11.376 30.155,11.432 C30.257,11.488 30.327,11.544 30.365,11.6 C30.403,11.656 30.43,11.728 30.446,11.816 C30.462,11.904 30.488,11.948 30.524,11.948 Z M26.693,10.826 C26.711,10.826 26.766,10.815 26.858,10.793 C26.95,10.771 27.029,10.74 27.095,10.7 C27.161,10.66 27.197,10.632 27.203,10.616 C27.209,10.6 27.212,10.578 27.212,10.55 L27.212,10.55 L27.212,10.184 L28.046,10.184 L28.046,10.532 C28.046,10.58 28.055,10.604 28.073,10.604 C28.091,10.604 28.146,10.588 28.238,10.556 C28.33,10.524 28.448,10.458 28.592,10.358 L28.592,10.358 L28.592,10.286 L28.58,9.746 L28.58,7.286 C28.74,7.222 28.82,7.174 28.82,7.142 C28.82,7.098 28.735,7.016 28.565,6.896 C28.395,6.776 28.292,6.716 28.256,6.716 C28.232,6.716 28.208,6.734 28.184,6.77 L28.184,6.77 L28.016,6.998 L27.416,6.998 C27.284,6.91 27.04,6.792 26.684,6.644 C26.696,6.816 26.702,6.986 26.702,7.154 L26.702,7.154 L26.702,10.172 C26.702,10.376 26.692,10.576 26.672,10.772 C26.668,10.808 26.675,10.826 26.693,10.826 Z M30.704,8.246 L29.63,8.246 C29.642,7.958 29.648,7.728 29.648,7.556 C29.648,7.384 29.646,7.234 29.642,7.106 L29.642,7.106 L30.704,7.106 L30.704,8.246 Z M28.046,8.54 L27.212,8.54 L27.212,7.19 L28.046,7.19 L28.046,8.54 Z M30.704,9.554 L29.54,9.554 C29.58,9.142 29.606,8.768 29.618,8.432 L29.618,8.432 L30.704,8.432 L30.704,9.554 Z M28.046,9.992 L27.212,9.992 L27.212,8.72 L28.046,8.72 L28.046,9.992 Z" id="Shape" fill="#000000"></path> </g> </g> </svg>