<?xml version="1.0" encoding="UTF-8"?> <svg width="113px" height="41px" viewBox="0 0 113 41" version="1.1" xmlns="http://www.w3.org/2000/svg" xmlns:xlink="http://www.w3.org/1999/xlink"> <title>logo</title> <defs> <polygon id="path-1" points="0 0 21.726 0 21.726 15.856 0 15.856"></polygon> <polygon id="path-3" points="0 1.77635684e-15 63.4386 1.77635684e-15 63.4386 7.889 0 7.889"></polygon> </defs> <g id="728x90_ch_vancuver_nxFS2" stroke="none" stroke-width="1" fill="none" fill-rule="evenodd"> <g id="logo"> <rect id="Rectangle" fill="#000000" x="0" y="0" width="113" height="41"></rect> <g id="Group-7" transform="translate(12.000000, 12.000000)"> <g id="Group-3"> <mask id="mask-2" fill="white"> <use xlink:href="#path-1"></use> </mask> <g id="Clip-2"></g> <path d="M15.996,0.736 L15.512,1.463 C18.757,2.797 20.067,5.22 20.067,7.815 C20.067,9.113 19.717,10.287 19.033,10.287 L10.526,10.287 C9.367,10.287 9.022,9.875 9.542,8.845 C10.473,7.008 13.261,3.496 14.979,1.385 C15.231,1.075 15.436,0.591 14.534,0.35 C13.612,0.103 12.12,-1.77635684e-15 10.856,-1.77635684e-15 C4.459,-1.77635684e-15 0,3.46 0,7.918 C0,12.024 3.867,15.856 10.841,15.856 C13.922,15.856 17.7,14.989 19.846,12.56 L17.997,12.56 C15.909,14.446 13.185,14.876 10.856,14.876 C5.228,14.876 1.667,11.955 1.667,7.918 C1.667,4.197 5.7,0.855 10.786,0.855 C11.395,0.855 11.594,0.986 10.95,1.784 C9.65,3.4 7.325,6.6 6.233,8.474 C5.064,10.483 6.257,12.116 8.885,12.116 L19.527,12.116 C20.184,12.116 20.558,11.741 20.94,11.063 C21.247,10.517 21.726,9.415 21.726,7.918 C21.726,4.894 19.457,2.114 15.996,0.736" id="Fill-1" fill="#FFFFFF" mask="url(#mask-2)"></path> </g> <g id="Group-6" transform="translate(24.713400, 4.230300)"> <mask id="mask-4" fill="white"> <use xlink:href="#path-3"></use> </mask> <g id="Clip-5"></g> <path d="M24.678,6.326 L14.565,6.326 C14.668,5.481 15.106,4.64 16.486,4.64 L22.756,4.64 L22.756,3.098 L14.411,3.098 C14.555,2.46 15.205,1.553 16.709,1.553 L23.339,1.553 L23.339,0.696 L28.099,4.173 L24.678,6.326 Z M60.72,3.106 L53.504,3.106 C53.737,2.184 54.455,1.549 55.798,1.549 L62.702,1.549 L62.702,1.77635684e-15 L55.362,1.77635684e-15 C51.177,1.77635684e-15 50.182,2.973 50.182,4.656 L59.12,4.656 C60.346,4.656 60.346,6.309 59.161,6.309 C57.939,6.309 49.282,6.313 49.282,6.313 L49.282,1.77635684e-15 L46.307,1.77635684e-15 L46.307,6.311 L41.372,6.311 C40.048,6.311 39.492,5.676 39.492,4.696 C39.492,3.514 39.491,1.77635684e-15 39.491,1.77635684e-15 L34.724,1.77635684e-15 L30.462,2.684 L26.79,1.77635684e-15 L16.222,1.77635684e-15 C13.162,1.77635684e-15 10.988,1.787 10.736,4.023 L12.722,4.023 C11.921,4.538 11.308,5.388 10.967,6.326 L4.716,6.326 C3.537,6.326 2.987,5.712 2.987,4.56 L2.987,1.77635684e-15 L0,1.77635684e-15 L0,3.877 C0,6.34 1.345,7.889 4.373,7.889 L25.211,7.889 L29.492,5.191 L33.183,7.889 L37.584,7.889 L31.857,3.702 L36.509,0.773 L36.509,5.206 C36.509,6.58 38.29,7.889 39.91,7.889 L60.735,7.889 C64.353,7.889 64.332,3.106 60.72,3.106 L60.72,3.106 Z" id="Fill-4" fill="#FFFFFF" mask="url(#mask-4)"></path> </g> </g> </g> </g> </svg>